<mxfile host="app.diagrams.net" modified="2024-03-22T02:22:16.138Z" agent="Mozilla/5.0 (Windows NT 10.0; Win64; x64) AppleWebKit/537.36 (KHTML, like Gecko) Chrome/122.0.0.0 Safari/537.36 Edg/122.0.0.0" etag="BN2YhItIwxk_RT1eClad" version="24.0.7" type="github">
  <diagram name="第 1 页" id="v_zHzjvY570mF-fDky7u">
    <mxGraphModel dx="870" dy="962" grid="0" gridSize="10" guides="1" tooltips="1" connect="1" arrows="1" fold="1" page="0" pageScale="1" pageWidth="827" pageHeight="1169" math="0" shadow="0">
      <root>
        <mxCell id="0" />
        <mxCell id="1" parent="0" />
        <mxCell id="f6C3fQsBrLVOm-zXx-8L-1" value="" style="edgeStyle=orthogonalEdgeStyle;rounded=0;orthogonalLoop=1;jettySize=auto;html=1;" edge="1" parent="1" source="f6C3fQsBrLVOm-zXx-8L-2" target="f6C3fQsBrLVOm-zXx-8L-4">
          <mxGeometry relative="1" as="geometry" />
        </mxCell>
        <mxCell id="f6C3fQsBrLVOm-zXx-8L-2" value="&lt;font style=&quot;font-size: 24px;&quot;&gt;开始&lt;/font&gt;" style="rounded=1;whiteSpace=wrap;html=1;" vertex="1" parent="1">
          <mxGeometry x="1128" y="196" width="120" height="60" as="geometry" />
        </mxCell>
        <mxCell id="f6C3fQsBrLVOm-zXx-8L-3" value="" style="edgeStyle=orthogonalEdgeStyle;rounded=0;orthogonalLoop=1;jettySize=auto;html=1;" edge="1" parent="1" source="f6C3fQsBrLVOm-zXx-8L-4" target="f6C3fQsBrLVOm-zXx-8L-7">
          <mxGeometry relative="1" as="geometry" />
        </mxCell>
        <mxCell id="f6C3fQsBrLVOm-zXx-8L-4" value="&lt;font style=&quot;font-size: 24px;&quot;&gt;系统初始化&lt;/font&gt;" style="rounded=0;whiteSpace=wrap;html=1;" vertex="1" parent="1">
          <mxGeometry x="1109.5" y="307" width="157" height="60" as="geometry" />
        </mxCell>
        <mxCell id="f6C3fQsBrLVOm-zXx-8L-5" value="" style="edgeStyle=orthogonalEdgeStyle;rounded=0;orthogonalLoop=1;jettySize=auto;html=1;" edge="1" parent="1" target="f6C3fQsBrLVOm-zXx-8L-12">
          <mxGeometry relative="1" as="geometry">
            <mxPoint x="1188" y="620" as="sourcePoint" />
          </mxGeometry>
        </mxCell>
        <mxCell id="f6C3fQsBrLVOm-zXx-8L-45" style="edgeStyle=orthogonalEdgeStyle;rounded=0;orthogonalLoop=1;jettySize=auto;html=1;exitX=0;exitY=0.5;exitDx=0;exitDy=0;entryX=0.5;entryY=0;entryDx=0;entryDy=0;" edge="1" parent="1" source="f6C3fQsBrLVOm-zXx-8L-7" target="f6C3fQsBrLVOm-zXx-8L-44">
          <mxGeometry relative="1" as="geometry" />
        </mxCell>
        <mxCell id="f6C3fQsBrLVOm-zXx-8L-53" value="&lt;font style=&quot;font-size: 20px;&quot;&gt;否&lt;/font&gt;" style="edgeLabel;html=1;align=center;verticalAlign=middle;resizable=0;points=[];" vertex="1" connectable="0" parent="f6C3fQsBrLVOm-zXx-8L-45">
          <mxGeometry x="-0.5718" relative="1" as="geometry">
            <mxPoint x="73" as="offset" />
          </mxGeometry>
        </mxCell>
        <mxCell id="f6C3fQsBrLVOm-zXx-8L-52" style="edgeStyle=orthogonalEdgeStyle;rounded=0;orthogonalLoop=1;jettySize=auto;html=1;exitX=0.5;exitY=1;exitDx=0;exitDy=0;" edge="1" parent="1" source="f6C3fQsBrLVOm-zXx-8L-7">
          <mxGeometry relative="1" as="geometry">
            <mxPoint x="1188.3333333333335" y="622.9999491373699" as="targetPoint" />
            <Array as="points">
              <mxPoint x="1188" y="583" />
            </Array>
          </mxGeometry>
        </mxCell>
        <mxCell id="f6C3fQsBrLVOm-zXx-8L-58" value="&lt;font style=&quot;font-size: 20px;&quot;&gt;是&lt;/font&gt;" style="edgeLabel;html=1;align=center;verticalAlign=middle;resizable=0;points=[];" vertex="1" connectable="0" parent="f6C3fQsBrLVOm-zXx-8L-52">
          <mxGeometry x="-0.2223" y="-4" relative="1" as="geometry">
            <mxPoint y="1" as="offset" />
          </mxGeometry>
        </mxCell>
        <mxCell id="f6C3fQsBrLVOm-zXx-8L-7" value="&lt;font style=&quot;font-size: 24px;&quot;&gt;是否在测温范围内&lt;/font&gt;" style="rhombus;whiteSpace=wrap;html=1;rounded=0;" vertex="1" parent="1">
          <mxGeometry x="1063.12" y="417" width="251.75" height="140" as="geometry" />
        </mxCell>
        <mxCell id="f6C3fQsBrLVOm-zXx-8L-8" value="" style="edgeStyle=orthogonalEdgeStyle;rounded=0;orthogonalLoop=1;jettySize=auto;html=1;" edge="1" parent="1" source="f6C3fQsBrLVOm-zXx-8L-12" target="f6C3fQsBrLVOm-zXx-8L-16">
          <mxGeometry relative="1" as="geometry" />
        </mxCell>
        <mxCell id="f6C3fQsBrLVOm-zXx-8L-9" value="" style="edgeStyle=orthogonalEdgeStyle;rounded=0;orthogonalLoop=1;jettySize=auto;html=1;" edge="1" parent="1" source="f6C3fQsBrLVOm-zXx-8L-12" target="f6C3fQsBrLVOm-zXx-8L-22">
          <mxGeometry relative="1" as="geometry" />
        </mxCell>
        <mxCell id="f6C3fQsBrLVOm-zXx-8L-10" value="" style="edgeStyle=orthogonalEdgeStyle;rounded=0;orthogonalLoop=1;jettySize=auto;html=1;" edge="1" parent="1" source="f6C3fQsBrLVOm-zXx-8L-12" target="f6C3fQsBrLVOm-zXx-8L-22">
          <mxGeometry relative="1" as="geometry" />
        </mxCell>
        <mxCell id="f6C3fQsBrLVOm-zXx-8L-11" style="edgeStyle=orthogonalEdgeStyle;rounded=0;orthogonalLoop=1;jettySize=auto;html=1;exitX=0;exitY=0.5;exitDx=0;exitDy=0;entryX=1;entryY=0.5;entryDx=0;entryDy=0;" edge="1" parent="1" source="f6C3fQsBrLVOm-zXx-8L-12" target="f6C3fQsBrLVOm-zXx-8L-23">
          <mxGeometry relative="1" as="geometry" />
        </mxCell>
        <mxCell id="f6C3fQsBrLVOm-zXx-8L-12" value="&lt;span style=&quot;font-size: 24px;&quot;&gt;体温检测&lt;/span&gt;" style="whiteSpace=wrap;html=1;rounded=0;" vertex="1" parent="1">
          <mxGeometry x="1128" y="623" width="120" height="60" as="geometry" />
        </mxCell>
        <mxCell id="f6C3fQsBrLVOm-zXx-8L-47" style="edgeStyle=orthogonalEdgeStyle;rounded=0;orthogonalLoop=1;jettySize=auto;html=1;exitX=0.5;exitY=1;exitDx=0;exitDy=0;entryX=0.5;entryY=0;entryDx=0;entryDy=0;" edge="1" parent="1" source="f6C3fQsBrLVOm-zXx-8L-16" target="f6C3fQsBrLVOm-zXx-8L-29">
          <mxGeometry relative="1" as="geometry" />
        </mxCell>
        <mxCell id="f6C3fQsBrLVOm-zXx-8L-16" value="&lt;font style=&quot;font-size: 24px;&quot;&gt;数据存储/显示&lt;/font&gt;" style="whiteSpace=wrap;html=1;rounded=0;" vertex="1" parent="1">
          <mxGeometry x="1103" y="773" width="171" height="60" as="geometry" />
        </mxCell>
        <mxCell id="f6C3fQsBrLVOm-zXx-8L-17" value="" style="endArrow=classic;startArrow=classic;html=1;rounded=0;" edge="1" parent="1">
          <mxGeometry width="50" height="50" relative="1" as="geometry">
            <mxPoint x="1293" y="730" as="sourcePoint" />
            <mxPoint x="1184" y="730" as="targetPoint" />
          </mxGeometry>
        </mxCell>
        <mxCell id="f6C3fQsBrLVOm-zXx-8L-19" value="" style="edgeStyle=orthogonalEdgeStyle;rounded=0;orthogonalLoop=1;jettySize=auto;html=1;" edge="1" parent="1" source="f6C3fQsBrLVOm-zXx-8L-20" target="f6C3fQsBrLVOm-zXx-8L-25">
          <mxGeometry relative="1" as="geometry" />
        </mxCell>
        <mxCell id="f6C3fQsBrLVOm-zXx-8L-20" value="&lt;font style=&quot;font-size: 24px;&quot;&gt;蓝牙模块&lt;/font&gt;" style="rounded=0;whiteSpace=wrap;html=1;" vertex="1" parent="1">
          <mxGeometry x="1295" y="701" width="120" height="60" as="geometry" />
        </mxCell>
        <mxCell id="f6C3fQsBrLVOm-zXx-8L-22" value="&lt;font style=&quot;font-size: 24px;&quot;&gt;指示灯&lt;/font&gt;" style="whiteSpace=wrap;html=1;rounded=0;" vertex="1" parent="1">
          <mxGeometry x="928" y="623" width="120" height="60" as="geometry" />
        </mxCell>
        <mxCell id="f6C3fQsBrLVOm-zXx-8L-23" value="&lt;font style=&quot;font-size: 24px;&quot;&gt;语音播报&lt;/font&gt;" style="rounded=0;whiteSpace=wrap;html=1;" vertex="1" parent="1">
          <mxGeometry x="925" y="723" width="120" height="60" as="geometry" />
        </mxCell>
        <mxCell id="f6C3fQsBrLVOm-zXx-8L-24" value="" style="edgeStyle=orthogonalEdgeStyle;rounded=0;orthogonalLoop=1;jettySize=auto;html=1;" edge="1" parent="1" source="f6C3fQsBrLVOm-zXx-8L-25" target="f6C3fQsBrLVOm-zXx-8L-26">
          <mxGeometry relative="1" as="geometry" />
        </mxCell>
        <mxCell id="f6C3fQsBrLVOm-zXx-8L-25" value="&lt;font style=&quot;font-size: 24px;&quot;&gt;上机位&lt;/font&gt;" style="whiteSpace=wrap;html=1;rounded=0;" vertex="1" parent="1">
          <mxGeometry x="1295" y="829" width="120" height="60" as="geometry" />
        </mxCell>
        <mxCell id="f6C3fQsBrLVOm-zXx-8L-49" style="edgeStyle=orthogonalEdgeStyle;rounded=0;orthogonalLoop=1;jettySize=auto;html=1;exitX=0.5;exitY=1;exitDx=0;exitDy=0;entryX=0.5;entryY=0;entryDx=0;entryDy=0;" edge="1" parent="1" source="f6C3fQsBrLVOm-zXx-8L-26" target="f6C3fQsBrLVOm-zXx-8L-34">
          <mxGeometry relative="1" as="geometry" />
        </mxCell>
        <mxCell id="f6C3fQsBrLVOm-zXx-8L-26" value="&lt;font style=&quot;font-size: 24px;&quot;&gt;交互按钮&lt;/font&gt;" style="whiteSpace=wrap;html=1;rounded=0;" vertex="1" parent="1">
          <mxGeometry x="1295" y="943" width="120" height="60" as="geometry" />
        </mxCell>
        <mxCell id="f6C3fQsBrLVOm-zXx-8L-36" style="edgeStyle=orthogonalEdgeStyle;rounded=0;orthogonalLoop=1;jettySize=auto;html=1;exitX=0.5;exitY=1;exitDx=0;exitDy=0;entryX=0.5;entryY=0;entryDx=0;entryDy=0;" edge="1" parent="1" source="f6C3fQsBrLVOm-zXx-8L-29" target="f6C3fQsBrLVOm-zXx-8L-34">
          <mxGeometry relative="1" as="geometry" />
        </mxCell>
        <mxCell id="f6C3fQsBrLVOm-zXx-8L-29" value="&lt;font style=&quot;font-size: 24px;&quot;&gt;下一次测量&lt;/font&gt;" style="whiteSpace=wrap;html=1;rounded=0;" vertex="1" parent="1">
          <mxGeometry x="1109.5" y="902" width="159" height="60" as="geometry" />
        </mxCell>
        <mxCell id="f6C3fQsBrLVOm-zXx-8L-40" style="edgeStyle=orthogonalEdgeStyle;rounded=0;orthogonalLoop=1;jettySize=auto;html=1;exitX=0.5;exitY=1;exitDx=0;exitDy=0;entryX=0.5;entryY=0;entryDx=0;entryDy=0;" edge="1" parent="1" source="f6C3fQsBrLVOm-zXx-8L-34" target="f6C3fQsBrLVOm-zXx-8L-39">
          <mxGeometry relative="1" as="geometry">
            <Array as="points">
              <mxPoint x="1189" y="1293" />
              <mxPoint x="1189" y="1293" />
            </Array>
          </mxGeometry>
        </mxCell>
        <mxCell id="f6C3fQsBrLVOm-zXx-8L-43" value="&lt;font style=&quot;font-size: 20px;&quot;&gt;是&lt;/font&gt;" style="edgeLabel;html=1;align=center;verticalAlign=middle;resizable=0;points=[];" vertex="1" connectable="0" parent="f6C3fQsBrLVOm-zXx-8L-40">
          <mxGeometry x="-0.0409" y="-3" relative="1" as="geometry">
            <mxPoint y="1" as="offset" />
          </mxGeometry>
        </mxCell>
        <mxCell id="f6C3fQsBrLVOm-zXx-8L-54" style="edgeStyle=orthogonalEdgeStyle;rounded=0;orthogonalLoop=1;jettySize=auto;html=1;exitX=1;exitY=0.5;exitDx=0;exitDy=0;entryX=1;entryY=0.5;entryDx=0;entryDy=0;" edge="1" parent="1" source="f6C3fQsBrLVOm-zXx-8L-34" target="f6C3fQsBrLVOm-zXx-8L-7">
          <mxGeometry relative="1" as="geometry">
            <Array as="points">
              <mxPoint x="1493" y="1206" />
              <mxPoint x="1493" y="487" />
            </Array>
          </mxGeometry>
        </mxCell>
        <mxCell id="f6C3fQsBrLVOm-zXx-8L-57" value="&lt;font style=&quot;font-size: 20px;&quot;&gt;否&lt;/font&gt;" style="edgeLabel;html=1;align=center;verticalAlign=middle;resizable=0;points=[];" vertex="1" connectable="0" parent="f6C3fQsBrLVOm-zXx-8L-54">
          <mxGeometry x="-0.7376" y="2" relative="1" as="geometry">
            <mxPoint x="-89" as="offset" />
          </mxGeometry>
        </mxCell>
        <mxCell id="f6C3fQsBrLVOm-zXx-8L-34" value="&lt;span style=&quot;font-size: 24px;&quot;&gt;是否关机&lt;/span&gt;" style="rhombus;whiteSpace=wrap;html=1;rounded=0;" vertex="1" parent="1">
          <mxGeometry x="1114.5" y="1146" width="149" height="120" as="geometry" />
        </mxCell>
        <mxCell id="f6C3fQsBrLVOm-zXx-8L-39" value="&lt;font style=&quot;font-size: 24px;&quot;&gt;结束&lt;/font&gt;" style="rounded=1;whiteSpace=wrap;html=1;" vertex="1" parent="1">
          <mxGeometry x="1129" y="1350" width="120" height="60" as="geometry" />
        </mxCell>
        <mxCell id="f6C3fQsBrLVOm-zXx-8L-48" style="edgeStyle=orthogonalEdgeStyle;rounded=0;orthogonalLoop=1;jettySize=auto;html=1;exitX=0.5;exitY=1;exitDx=0;exitDy=0;entryX=0;entryY=0.5;entryDx=0;entryDy=0;" edge="1" parent="1" source="f6C3fQsBrLVOm-zXx-8L-44" target="f6C3fQsBrLVOm-zXx-8L-34">
          <mxGeometry relative="1" as="geometry" />
        </mxCell>
        <mxCell id="f6C3fQsBrLVOm-zXx-8L-44" value="&lt;font style=&quot;font-size: 24px;&quot;&gt;待机状态&lt;/font&gt;" style="whiteSpace=wrap;html=1;rounded=0;" vertex="1" parent="1">
          <mxGeometry x="827" y="942" width="120" height="60" as="geometry" />
        </mxCell>
      </root>
    </mxGraphModel>
  </diagram>
</mxfile>
